<svg xmlns="http://www.w3.org/2000/svg" viewBox="-40 -40 592 592">
  <circle cx="256" cy="256" r="296" fill="oklch(40% .2 325)" />
  <path fill="#fff"
    d="M343.6 178.8V93.44c0-5.76-3.04-11.04-7.92-14l-71.2-42.72c-5.2-3.12-11.6-3.12-16.8 0L176.4 79.44c-4.96 2.96-7.92 8.24-7.92 14v85.36c0 5.76 3.04 11.04 7.92 14l71.28 42.72c7.52 4.32 13.76 2 16.8 0l71.2-42.72c4.88-2.96 7.92-8.24 7.92-14z" />
  <path fill="#fff"
    d="M227.2 268L156 225.28c-5.2-3.12-11.6-3.12-16.8 0L67.92 268c-4.96 2.96-7.92 8.24-7.92 14v85.36c0 5.76 3.04 11.04 7.92 14l71.28 42.72c7.52 4.32 13.76 2 16.8 0l71.2-42.72c4.96-2.96 7.92-8.24 7.92-14V282c0-5.76-2.96-11.04-7.92-14z" />
  <path fill="#fff"
    d="M444.08 267.92l-71.2-42.72c-5.2-3.12-11.6-3.12-16.8 0l-71.28 42.72c-4.96 2.96-7.92 8.24-7.92 14v85.36c0 5.76 3.04 11.04 7.92 14L356 424c7.52 4.32 13.76 2 16.8 0l71.2-42.72c4.96-2.96 7.92-8.24 7.92-14v-85.36c.08-5.76-2.96-11.04-7.84-14z" />
</svg>